<?xml version="1.0" encoding="UTF-8" standalone="no"?>
<!-- Created with Inkscape (http://www.inkscape.org/) -->

<svg
   width="40"
   height="40"
   viewBox="0 0 10.583333 10.583334"
   version="1.1"
   id="svg4553"
   inkscape:version="1.4 (1:1.4+202410161351+e7c3feb100)"
   sodipodi:docname="launcher_icon.svg"
   xml:space="preserve"
   xmlns:inkscape="http://www.inkscape.org/namespaces/inkscape"
   xmlns:sodipodi="http://sodipodi.sourceforge.net/DTD/sodipodi-0.dtd"
   xmlns="http://www.w3.org/2000/svg"
   xmlns:svg="http://www.w3.org/2000/svg"
   xmlns:rdf="http://www.w3.org/1999/02/22-rdf-syntax-ns#"
   xmlns:cc="http://creativecommons.org/ns#"
   xmlns:dc="http://purl.org/dc/elements/1.1/"><defs
     id="defs4547"><inkscape:path-effect
       effect="spiro"
       id="path-effect4"
       is_visible="true"
       lpeversion="1" /><inkscape:path-effect
       effect="spiro"
       id="path-effect3"
       is_visible="true"
       lpeversion="1" /></defs><sodipodi:namedview
     id="base"
     pagecolor="#ffffff"
     bordercolor="#666666"
     borderopacity="1.0"
     inkscape:pageopacity="0.0"
     inkscape:pageshadow="2"
     inkscape:zoom="3.959798"
     inkscape:cx="55.55839"
     inkscape:cy="27.147849"
     inkscape:document-units="px"
     inkscape:current-layer="layer1"
     showgrid="false"
     units="mm"
     inkscape:window-width="1921"
     inkscape:window-height="1440"
     inkscape:window-x="0"
     inkscape:window-y="0"
     inkscape:window-maximized="0"
     inkscape:showpageshadow="0"
     inkscape:pagecheckerboard="1"
     inkscape:deskcolor="#d1d1d1" /><metadata
     id="metadata4550"><rdf:RDF><cc:Work
         rdf:about=""><dc:format>image/svg+xml</dc:format><dc:type
           rdf:resource="http://purl.org/dc/dcmitype/StillImage" /></cc:Work></rdf:RDF></metadata><g
     inkscape:label="Layer 1"
     inkscape:groupmode="layer"
     id="layer1"
     transform="translate(-24.07528,-93.732859)"><rect
       style="fill:#000000;stroke:#ffdd55;stroke-width:0.264583;stroke-linejoin:bevel;stroke-dasharray:none;stroke-opacity:1;fill-opacity:1"
       id="rect232"
       width="10.31875"
       height="10.31875"
       x="24.207571"
       y="93.86515"
       rx="2.6698244"
       ry="2.6698244" /><text
       xml:space="preserve"
       style="font-style:normal;font-variant:normal;font-weight:bold;font-stretch:normal;font-size:3.52778px;line-height:125%;font-family:'Noto Sans';-inkscape-font-specification:'Noto Sans Bold';text-align:center;letter-spacing:0px;word-spacing:0px;text-anchor:middle;fill:#ffdd55;fill-opacity:1;stroke:none;stroke-width:0.264583;stroke-linecap:butt;stroke-linejoin:miter;stroke-dasharray:none;stroke-opacity:1"
       x="29.396933"
       y="97.966194"
       id="text842-3"><tspan
         sodipodi:role="line"
         style="font-style:normal;font-variant:normal;font-weight:bold;font-stretch:normal;font-size:3.52778px;font-family:'Noto Sans';-inkscape-font-specification:'Noto Sans Bold';text-align:center;text-anchor:middle;fill:#ffdd55;fill-opacity:1;stroke:none;stroke-width:0.264583;stroke-dasharray:none"
         x="29.396933"
         y="97.966194"
         id="tspan1">Garm</tspan></text><path
       d="m 46.947786,99.323732 c -0.510129,0.0032 -0.697035,0.246239 -0.697115,0.804598 v 0.48421 l 0.623735,-0.017 c 0.447339,-0.0121 0.676533,-0.0419 0.809769,-0.10594 0.507299,-0.24387 0.430305,-0.983123 -0.113688,-1.09192 -0.246974,-0.0494 -0.452658,-0.07497 -0.622701,-0.0739 z"
       style="fill:#ffffff;stroke-width:0.264583;stroke-linejoin:bevel"
       id="path15" /><path
       d="m 25.75683,98.674676 v 0.687814 c 0,1.4825 0.952371,2.34038 2.043803,1.84071 0.470589,-0.21544 0.536688,-0.15746 0.396359,0.34779 -0.07361,0.26504 -0.56287,0.60959 -0.640788,0.68058 -0.06473,0.059 -0.04797,0.0785 0.166915,0.32917 l 0.21394,0.24908 0.178801,-0.10542 c 0.09835,-0.058 0.287002,-0.22103 0.419095,-0.36225 0.377824,-0.40392 0.407211,-0.567 0.407211,-2.24379 v -1.423684 h -0.340031 -0.340031 l -0.01809,0.732255 c -0.02533,1.010409 -0.254663,1.291129 -0.993221,1.214909 -0.615838,-0.0636 -0.772154,-0.30595 -0.794783,-1.234029 l -0.01705,-0.713135 h -0.341064 z"
       style="fill:#ffffff;stroke-width:0.264583;stroke-linejoin:bevel"
       id="path13" /><path
       d="m 31.043846,98.503627 c -0.45362,0.01472 -0.878342,0.136471 -1.106909,0.371037 -0.349002,0.358164 -0.357601,0.410125 -0.357601,2.187466 v 1.59422 h 0.340031 0.340031 l 0.01809,-0.50902 c 0.03403,-0.94168 0.559157,-1.08974 1.160136,-0.32711 0.649003,0.82358 0.663446,0.83613 0.988053,0.83613 h 0.285771 v -0.26459 c 0,-0.23895 -0.05215,-0.26251 -0.134876,-0.29817 -0.124559,-0.0537 -0.608231,-0.56175 -0.608231,-0.68316 0,-0.0375 0.0774,-0.10083 0.172082,-0.14005 0.881002,-0.36493 1.121546,-1.623508 0.440283,-2.304765 -0.322767,-0.322769 -0.95363,-0.480913 -1.536857,-0.461988 z m 0.10232,0.756543 c 0.859785,-0.0026 1.188159,0.226978 1.118278,0.78186 -0.06563,0.52114 -0.270103,0.62815 -1.265039,0.66353 l -0.729672,0.0258 v -0.55397 c 0,-0.856255 0.05559,-0.914893 0.876433,-0.91726 z"
       style="fill:#ffffff;stroke-width:0.264583;stroke-linejoin:bevel"
       id="path11" /><path
       d="m 42.752176,93.865151 c -1.479082,0 -2.669604,1.190522 -2.669604,2.669604 v 4.979545 c 0,1.47908 1.190522,2.6696 2.669604,2.6696 h 4.979542 c 1.479082,0 2.669604,-1.19052 2.669604,-2.6696 v -4.979545 c 0,-1.479082 -1.190522,-2.669604 -2.669604,-2.669604 z m 4.2323,4.520654 c 0.620381,-0.02432 1.264532,0.151061 1.605587,0.539502 0.644124,0.733619 0.406693,2.058043 -0.430981,2.405023 -0.08615,0.0357 -0.15658,0.082 -0.15658,0.10283 0,0.11386 0.399795,0.52422 0.535885,0.56069 0.122539,0.0328 0.154512,0.10329 0.154512,0.40101 v 0.36742 H 48.32703 c -0.435652,0 -0.427466,0.006 -0.987537,-0.70693 -0.452646,-0.57634 -0.476958,-0.59402 -0.748274,-0.54312 -0.253244,0.0475 -0.340548,0.25877 -0.340548,0.82372 v 0.42633 H 45.799536 45.3484 v -1.71411 c 0,0 0.03006,-1.56509 0.06356,-1.717203 0.0295,-0.133945 0.108521,-0.285254 0.108521,-0.285254 0.246746,-0.411486 0.843613,-0.635585 1.463993,-0.659908 z m -5.458581,0.178284 0.437699,0.0155 0.438216,0.0155 0.02636,0.726053 c 0.03514,0.961222 0.193134,1.187002 0.826306,1.181842 0.614983,-0.005 0.758764,-0.24213 0.763261,-1.257806 l 0.0031,-0.676961 h 0.451135 0.451652 v 1.539437 c 0,1.93368 -0.06629,2.15877 -0.770495,2.6262 -0.368105,0.24434 -0.380355,0.24213 -0.676445,-0.12919 -0.306668,-0.3846 -0.310382,-0.32681 0.03979,-0.58549 0.336026,-0.24824 0.429366,-0.37399 0.47904,-0.64596 l 0.03566,-0.19534 -0.230477,0.11524 c -0.549988,0.27487 -1.224253,0.15767 -1.695503,-0.32659 -0.213762,-0.21966 -0.579293,-0.88606 -0.579293,-1.632462 z"
       style="fill:#ffffff;stroke-width:0.264583;stroke-linejoin:bevel"
       id="path9" /><path
       d="m 47.021167,99.26017 c -0.820846,0.0024 -0.876433,0.061 -0.876433,0.91726 v 0.55397 l 0.729672,-0.0258 c 0.994936,-0.0354 1.199409,-0.14239 1.265039,-0.66353 0.06988,-0.554882 -0.258493,-0.78446 -1.118278,-0.78186 z m -0.07338,0.06356 c 0.170043,-0.0011 0.375727,0.0245 0.622701,0.0739 0.543993,0.108797 0.620987,0.84805 0.113688,1.09192 -0.133236,0.0641 -0.36243,0.0938 -0.809769,0.10594 l -0.623735,0.017 v -0.48421 c 8e-5,-0.558359 0.186986,-0.801371 0.697115,-0.804598 z"
       style=""
       id="path14" /><path
       d="m 41.525895,98.564089 v 0.769979 c 0,0.746402 0.365531,1.412802 0.579293,1.632462 0.47125,0.48426 1.145515,0.60146 1.695503,0.32659 l 0.230477,-0.11524 -0.03566,0.19534 c -0.04967,0.27197 -0.143014,0.39772 -0.47904,0.64596 -0.350173,0.25868 -0.346459,0.20089 -0.03979,0.58549 0.29609,0.37132 0.30834,0.37353 0.676445,0.12919 0.704209,-0.46743 0.770495,-0.69252 0.770495,-2.6262 v -1.539437 h -0.451652 -0.451135 l -0.0031,0.676961 c -0.0045,1.015676 -0.148278,1.252806 -0.763261,1.257806 -0.633172,0.005 -0.791166,-0.22062 -0.826306,-1.181842 l -0.02636,-0.726053 -0.438216,-0.0155 z m 0.105936,0.110587 h 0.341065 0.341064 l 0.01705,0.713135 c 0.02263,0.928079 0.178945,1.170429 0.794783,1.234029 0.738558,0.0762 0.967891,-0.2045 0.993221,-1.214909 l 0.01809,-0.732255 h 0.340031 0.340031 v 1.423684 c 0,1.67679 -0.02939,1.83987 -0.407211,2.24379 -0.132093,0.14122 -0.320745,0.30425 -0.419095,0.36225 l -0.178801,0.10542 -0.21394,-0.24908 c -0.214883,-0.2507 -0.231645,-0.27017 -0.166915,-0.32917 0.07792,-0.071 0.567178,-0.41554 0.640788,-0.68058 0.140329,-0.50525 0.07423,-0.56323 -0.396359,-0.34779 -1.091432,0.49967 -2.043803,-0.35821 -2.043803,-1.84071 z"
       style=""
       id="path12" /><path
       d="m 46.984476,98.385805 c -0.62038,0.02432 -1.217247,0.248422 -1.463993,0.659908 0,0 -0.07902,0.151309 -0.108521,0.285254 -0.0335,0.152113 -0.06356,1.717203 -0.06356,1.717203 v 1.71411 h 0.451136 0.451135 v -0.42633 c 0,-0.56495 0.0873,-0.77622 0.340548,-0.82372 0.271316,-0.0509 0.295628,-0.0332 0.748274,0.54312 0.560071,0.71314 0.551885,0.70693 0.987537,0.70693 h 0.365869 v -0.36742 c 0,-0.29772 -0.03197,-0.36821 -0.154512,-0.40101 -0.13609,-0.0365 -0.535885,-0.44683 -0.535885,-0.56069 0,-0.0208 0.07043,-0.0671 0.15658,-0.10283 0.837674,-0.34698 1.075105,-1.671404 0.430981,-2.405023 -0.341055,-0.388441 -0.985206,-0.563825 -1.605587,-0.539502 z m -0.06563,0.117822 c 0.583227,-0.01892 1.21409,0.139219 1.536857,0.461988 0.681263,0.681257 0.440719,1.939835 -0.440283,2.304765 -0.09468,0.0392 -0.172082,0.10255 -0.172082,0.14005 0,0.12141 0.483672,0.62946 0.608231,0.68316 0.08272,0.0357 0.134876,0.0592 0.134876,0.29817 v 0.26459 h -0.285771 c -0.324607,0 -0.33905,-0.0126 -0.988053,-0.83613 -0.600979,-0.76263 -1.126106,-0.61457 -1.160136,0.32711 l -0.01809,0.50902 h -0.340031 -0.340031 v -1.59422 c 0,-1.777341 0.0086,-1.829302 0.357601,-2.187466 0.228567,-0.234566 0.653289,-0.356317 1.106909,-0.371037 z"
       style=""
       id="path10" /><path
       style="fill:#000000;stroke-width:1"
       d="m 43.476758,92.021296 c -0.306668,-0.3846 -0.310593,-0.32655 0.03958,-0.58523 0.336026,-0.24824 0.429591,-0.37444 0.479265,-0.64641 l 0.03561,-0.19497 -0.230769,0.11533 c -0.549988,0.27487 -1.223866,0.1572 -1.695116,-0.32706 -0.213762,-0.21966 -0.579623,-0.88586 -0.579623,-1.632267 v -0.76996 l 0.437994,0.0154 0.437993,0.0154 0.02654,0.72612 c 0.03514,0.961217 0.193128,1.187237 0.8263,1.182077 0.614983,-0.005 0.758911,-0.24216 0.763408,-1.257837 l 0.003,-0.6769 h 0.451267 0.451266 v 1.539047 c 0,1.93368 -0.06611,2.15911 -0.770319,2.62654 -0.368105,0.24434 -0.380297,0.242 -0.676387,-0.12932 z m 0.933082,-0.26246 c 0.377824,-0.40392 0.407445,-0.56704 0.407445,-2.24383 V 88.091209 H 44.47729 44.137295 l -0.01837,0.73245 c -0.02533,1.010417 -0.254638,1.290837 -0.993196,1.214617 -0.615838,-0.0636 -0.771899,-0.30595 -0.794528,-1.234027 l -0.01739,-0.71304 H 41.97284 41.631868 v 0.68818 c 0,1.482497 0.952425,2.340147 2.043857,1.840477 0.470589,-0.21544 0.53681,-0.15733 0.396481,0.34792 -0.07361,0.26504 -0.563097,0.60947 -0.641015,0.68046 -0.06473,0.059 -0.0478,0.0783 0.167083,0.329 l 0.213747,0.24937 0.178821,-0.10551 c 0.09835,-0.058 0.286897,-0.22105 0.41899,-0.36227 z m 0.938346,-1.29419 c 0,0 0.03049,-1.564767 0.06399,-1.716877 0.0295,-0.13395 0.108551,-0.28537 0.108551,-0.28537 0.493493,-0.82297 2.387212,-0.89722 3.069323,-0.12034 0.644124,0.73362 0.406949,2.057767 -0.430725,2.404747 -0.08615,0.0357 -0.156634,0.082 -0.156634,0.10282 0,0.11386 0.399415,0.52426 0.535505,0.56073 0.122539,0.0328 0.154667,0.10366 0.154667,0.40138 v 0.36741 h -0.365749 c -0.435652,0 -0.427312,0.006 -0.987383,-0.70714 -0.452646,-0.57634 -0.477043,-0.59405 -0.748359,-0.54315 -0.253244,0.0475 -0.340656,0.25891 -0.340656,0.82386 v 0.42643 H 45.79945 45.348183 Z m 0.8045,1.0993 c 0.03403,-0.94168 0.558835,-1.08967 1.159814,-0.32704 0.649003,0.82358 0.66376,0.83606 0.988367,0.83606 h 0.285818 v -0.26444 c 0,-0.23895 -0.05223,-0.26265 -0.134952,-0.29831 -0.124559,-0.0537 -0.60831,-0.56189 -0.60831,-0.6833 0,-0.0375 0.07747,-0.10041 0.172154,-0.13963 0.881002,-0.36493 1.121367,-1.623897 0.440104,-2.305157 -0.573809,-0.57381 -2.121417,-0.62697 -2.643856,-0.0908 -0.349002,0.35817 -0.357459,0.40991 -0.357459,2.187247 v 1.59441 h 0.339961 0.339962 z m -0.0082,-1.96989 c 0,-0.856257 0.05597,-0.914797 0.876816,-0.917167 0.859785,-0.003 1.187788,0.2269 1.117907,0.781787 -0.06563,0.52114 -0.269797,0.62826 -1.264733,0.66364 l -0.72999,0.0259 z m 1.539615,0.31191 c 0.507299,-0.24387 0.430422,-0.982757 -0.113571,-1.091557 -0.987898,-0.19758 -1.319826,-0.0138 -1.319933,0.730667 l -6.9e-5,0.48392 0.623878,-0.0168 c 0.447339,-0.0121 0.676459,-0.0421 0.809695,-0.10618 z"
       id="path8"
       sodipodi:nodetypes="csscssscccssscccsscccscccssscccssssscsscssssssscssssccccssscssssssscccssssscsssscssss" /></g></svg>
